
<svg xmlns="http://www.w3.org/2000/svg" viewBox="0 0 841.9 595.3">
  <g fill="#61DAFB">
    <path d="M666.3 296.5c0-26.2-21.3-47.5-47.5-47.5s-47.5 21.3-47.5 47.5 21.3 47.5 47.5 47.5 47.5-21.3 47.5-47.5zM421.9 296.5c0-26.2-21.3-47.5-47.5-47.5s-47.5 21.3-47.5 47.5 21.3 47.5 47.5 47.5 47.5-21.3 47.5-47.5z"/>
    <path d="M520.5 78.1c-16.3 0-33.1 4.4-49.8 13.3-30.1 16.4-57.2 43.3-79.1 78.1-22.2 35.4-37.6 78.2-43.6 121.7-6.2 44.6-1.4 89.1 14.3 130.4 15.5 40.6 39.8 75.9 71.6 103.4 31.8 27.6 70.2 43.7 109.5 43.7 16.3 0 33.1-4.4 49.8-13.3 30.1-16.4 57.2-43.3 79.1-78.1 22.2-35.4 37.6-78.2 43.6-121.7 6.2-44.6 1.4-89.1-14.3-130.4-15.5-40.6-39.8-75.9-71.6-103.4-31.8-27.6-70.2-43.7-109.5-43.7z"/>
  </g>
</svg>
